<svg width="29" height="29" viewBox="0 0 29 29" fill="none" xmlns="http://www.w3.org/2000/svg">
<path d="M14.5033 7.06477C10.3886 7.06477 7.06967 10.3844 7.06967 14.5C7.06967 18.6156 10.3886 21.9352 14.5033 21.9352C18.6179 21.9352 21.9369 18.6156 21.9369 14.5C21.9369 10.3844 18.6179 7.06477 14.5033 7.06477ZM14.5033 19.3339C11.8442 19.3339 9.67045 17.1661 9.67045 14.5C9.67045 11.8339 11.8378 9.66614 14.5033 9.66614C17.1688 9.66614 19.3361 11.8339 19.3361 14.5C19.3361 17.1661 17.1622 19.3339 14.5033 19.3339ZM23.9747 6.76064C23.9747 7.72483 23.1984 8.49488 22.2409 8.49488C21.2769 8.49488 20.5071 7.71835 20.5071 6.76064C20.5071 5.80292 21.2834 5.02639 22.2409 5.02639C23.1984 5.02639 23.9747 5.80292 23.9747 6.76064ZM28.8982 8.52076C28.7882 6.19765 28.2576 4.13986 26.5561 2.44444C24.8611 0.749024 22.8037 0.218398 20.4812 0.101919C18.0874 -0.033973 10.9126 -0.033973 8.51886 0.101919C6.20274 0.211927 4.1454 0.742553 2.4439 2.43797C0.742388 4.13339 0.218349 6.19118 0.101896 8.5143C-0.0339655 10.9086 -0.0339655 18.0849 0.101896 20.4793C0.211879 22.8023 0.742388 24.8602 2.4439 26.5556C4.1454 28.2509 6.19627 28.7816 8.51886 28.8982C10.9126 29.034 18.0874 29.034 20.4812 28.8982C22.8037 28.7881 24.8611 28.2575 26.5561 26.5556C28.2512 24.8602 28.7816 22.8023 28.8982 20.4793C29.034 18.0849 29.034 10.9151 28.8982 8.52076ZM25.8056 23.0482C25.301 24.3167 24.3241 25.2937 23.0496 25.805C21.141 26.562 16.6124 26.3874 14.5033 26.3874C12.3942 26.3874 7.85896 26.5556 5.9569 25.805C4.68885 25.3003 3.71194 24.3231 3.20083 23.0482C2.4439 21.1393 2.61858 16.6096 2.61858 14.5C2.61858 12.3905 2.45036 7.85424 3.20083 5.95175C3.70547 4.68343 4.68238 3.70629 5.9569 3.19508C7.86543 2.43797 12.3942 2.61269 14.5033 2.61269C16.6124 2.61269 21.1476 2.44444 23.0496 3.19508C24.3177 3.69982 25.2946 4.67695 25.8056 5.95175C26.5626 7.86071 26.3879 12.3905 26.3879 14.5C26.3879 16.6096 26.5626 21.1458 25.8056 23.0482Z" fill="#D6000D"/>
</svg>
