<svg width="29" height="29" viewBox="0 0 29 29" fill="none" xmlns="http://www.w3.org/2000/svg">
<path d="M6.49134 29H0.479018V9.63817H6.49134V29ZM3.48194 6.99704C1.55939 6.99704 0 5.40459 0 3.48202C1.37608e-08 2.55853 0.366846 1.67286 1.01984 1.01986C1.67283 0.366854 2.55847 0 3.48194 0C4.40542 0 5.29105 0.366854 5.94404 1.01986C6.59703 1.67286 6.96388 2.55853 6.96388 3.48202C6.96388 5.40459 5.40384 6.99704 3.48194 6.99704ZM28.9936 29H22.9941V19.5747C22.9941 17.3285 22.9488 14.4478 19.8683 14.4478C16.7423 14.4478 16.2633 16.8884 16.2633 19.413V29H10.2575V9.63817H16.0238V12.2793H16.108C16.9107 10.7581 18.8713 9.15267 21.7967 9.15267C27.8815 9.15267 29 13.1597 29 18.3642V29H28.9936Z" fill="#D6000D"/>
</svg>
