<svg width="132" height="37" viewBox="0 0 132 37" fill="none" xmlns="http://www.w3.org/2000/svg">
<path d="M25.9844 24.8672C25.4062 28.4297 23.8047 31.2734 21.1797 33.3984C18.5547 35.5078 15.3594 36.5312 11.5938 36.4688C9.42188 36.4219 7.51562 35.9062 5.875 34.9219C4.25 33.9375 2.97656 32.5078 2.05469 30.6328C1.13281 28.7422 0.617188 26.6094 0.507812 24.2344C0.414062 22.4531 0.632812 20.0312 1.16406 16.9688C1.69531 13.8906 2.71094 11.1328 4.21094 8.69531C5.72656 6.25781 7.57812 4.42188 9.76562 3.1875C11.9688 1.95312 14.4141 1.35938 17.1016 1.40625C20.4922 1.46875 23.1719 2.53906 25.1406 4.61719C27.125 6.67969 28.1797 9.53125 28.3047 13.1719H22.5625C22.4844 10.7344 21.9688 8.97656 21.0156 7.89844C20.0781 6.80469 18.6797 6.23438 16.8203 6.1875C14.2734 6.10938 12.1406 7.02344 10.4219 8.92969C8.70312 10.8359 7.54688 13.6094 6.95312 17.25L6.48438 20.3672L6.27344 22.7578C6.14844 24.3672 6.25781 25.8828 6.60156 27.3047C6.96094 28.7109 7.58594 29.7891 8.47656 30.5391C9.36719 31.2734 10.5 31.6641 11.875 31.7109C16.2344 31.8828 19.0312 29.6172 20.2656 24.9141L25.9844 24.8672ZM30.3672 23.2266C30.6328 20.7422 31.3594 18.4844 32.5469 16.4531C33.75 14.4219 35.2891 12.8516 37.1641 11.7422C39.0391 10.6328 41.1172 10.1094 43.3984 10.1719C45.5703 10.2031 47.4453 10.7812 49.0234 11.9062C50.6016 13.0312 51.75 14.5703 52.4688 16.5234C53.2031 18.4766 53.4609 20.6484 53.2422 23.0391C52.9922 25.7266 52.2578 28.1016 51.0391 30.1641C49.8359 32.2266 48.2891 33.8125 46.3984 34.9219C44.5234 36.0156 42.4375 36.5312 40.1406 36.4688C37.9844 36.4375 36.1172 35.8672 34.5391 34.7578C32.9766 33.6328 31.8281 32.1016 31.0938 30.1641C30.3594 28.2109 30.0938 26.0625 30.2969 23.7188L30.3672 23.2266ZM35.8281 26.4375C35.9062 28.0781 36.3359 29.3984 37.1172 30.3984C37.9141 31.3828 39.0156 31.8984 40.4219 31.9453C42.3281 31.9922 43.9219 31.2578 45.2031 29.7422C46.5 28.2266 47.3125 26.1562 47.6406 23.5312L47.7812 21.2344C47.7812 19.2344 47.3828 17.6641 46.5859 16.5234C45.7891 15.3828 44.6328 14.7812 43.1172 14.7188C40.7422 14.6562 38.8672 15.8203 37.4922 18.2109C36.6641 19.6641 36.1406 21.3359 35.9219 23.2266C35.7969 24.5391 35.7656 25.6094 35.8281 26.4375ZM57.0156 23.2969C57.3281 20.6875 58.0312 18.3438 59.125 16.2656C60.2188 14.1875 61.5703 12.6406 63.1797 11.625C64.7891 10.5938 66.5781 10.1016 68.5469 10.1484C71.125 10.2109 73.1406 11.1719 74.5938 13.0312L77.0312 0H82.6094L76.3516 36H71.3828L71.7578 33.375C69.7891 35.5156 67.4766 36.5547 64.8203 36.4922C62.4609 36.4609 60.5703 35.5547 59.1484 33.7734C57.7422 31.9766 56.9844 29.5938 56.875 26.625C56.8281 25.6562 56.8516 24.7109 56.9453 23.7891L57.0156 23.2969ZM62.4062 25.4766C62.2969 27.4141 62.5938 28.9531 63.2969 30.0938C64.0156 31.2344 65.0781 31.8203 66.4844 31.8516C68.625 31.9141 70.4766 30.875 72.0391 28.7344L73.9375 17.8359C73.2031 15.8828 71.7812 14.875 69.6719 14.8125C67.5469 14.75 65.8359 15.6875 64.5391 17.625C63.2422 19.5625 62.5312 22.1797 62.4062 25.4766ZM97.3984 36C97.2109 35.375 97.1328 34.5859 97.1641 33.6328C95.0703 35.5859 92.8125 36.5312 90.3906 36.4688C88.1875 36.4375 86.3594 35.7344 84.9062 34.3594C83.4688 32.9688 82.7969 31.2109 82.8906 29.0859C83.0156 26.4141 84.1719 24.3125 86.3594 22.7812C88.5469 21.25 91.4844 20.4844 95.1719 20.4844L98.7812 20.5312L99.1094 18.7969C99.2031 18.1875 99.2031 17.6172 99.1094 17.0859C98.7969 15.3984 97.6797 14.5312 95.7578 14.4844C94.5703 14.4531 93.5234 14.7578 92.6172 15.3984C91.7266 16.0234 91.1797 16.8672 90.9766 17.9297L85.4219 17.9766C85.5312 16.4141 86.0859 15.0469 87.0859 13.875C88.0859 12.6875 89.4141 11.7656 91.0703 11.1094C92.7266 10.4531 94.4766 10.1406 96.3203 10.1719C99.0859 10.2344 101.242 11.0703 102.789 12.6797C104.336 14.2734 104.977 16.3438 104.711 18.8906L102.766 30.7734L102.578 32.8828C102.531 33.8047 102.648 34.7031 102.93 35.5781L102.906 36H97.3984ZM91.6797 31.9219C92.8516 31.9531 93.9375 31.6875 94.9375 31.125C95.9375 30.5469 96.7891 29.8047 97.4922 28.8984L98.3594 24.0938L95.7109 24.0703C93.6172 24.0703 91.9453 24.4688 90.6953 25.2656C89.4453 26.0469 88.7344 27.125 88.5625 28.5C88.4375 29.5469 88.6641 30.375 89.2422 30.9844C89.8359 31.5781 90.6484 31.8906 91.6797 31.9219ZM124.375 15.8438C123.656 15.6875 122.93 15.6094 122.195 15.6094C119.758 15.5469 117.82 16.5547 116.383 18.6328L113.336 36H107.781L112.164 10.6406L117.438 10.6172L116.875 13.5C118.609 11.2031 120.609 10.0781 122.875 10.125C123.391 10.125 124.102 10.2422 125.008 10.4766L124.375 15.8438Z" fill="#D6000D"/>
<path d="M125.125 33.2578C125.125 32.3047 125.422 31.5312 126.016 30.9375C126.625 30.3281 127.398 30.0078 128.336 29.9766C129.258 29.9453 130.023 30.2266 130.633 30.8203C131.258 31.3984 131.57 32.1484 131.57 33.0703C131.57 33.9766 131.273 34.7344 130.68 35.3438C130.086 35.9375 129.312 36.25 128.359 36.2812C127.438 36.3125 126.664 36.0391 126.039 35.4609C125.43 34.8828 125.125 34.1484 125.125 33.2578Z" fill="black"/>
</svg>
